<svg xmlns="http://www.w3.org/2000/svg" version="1.1" xmlns:xlink="http://www.w3.org/1999/xlink" xmlns:svgjs="http://svgjs.dev/svgjs" viewBox="0 0 14.838769490650936 14.422402163205119"><g transform="matrix(1,0,0,1,1.219067362512968,11.80367659756715)"><rect width="14.838769490650936" height="14.838769490650936" x="-1.219067362512968" y="-12.01186026129006" fill="#ffffff"></rect><g><path d=" M 0.596923828125 0.6027832031249998 Q 0.596923828125 0.5859374999999998 0.566162109375 0.5720214843749998 Q 0.535400390625 0.5581054687499998 0.472412109375 0.5581054687499998 Q 0.440185546875 0.5581054687499998 0.4200439453125 0.5617675781249998 Q 0.39990234375 0.5654296874999998 0.38818359375 0.5720214843749998 Q 0.37646484375 0.5786132812499998 0.3724365234375 0.5881347656249998 Q 0.368408203125 0.5976562499999998 0.368408203125 0.6101074218749998 Q 0.368408203125 0.6342773437499998 0.391845703125 0.6522216796874998 Q 0.415283203125 0.6701660156249998 0.4537353515625 0.6870117187499998 Q 0.4921875 0.7038574218749998 0.541259765625 0.7207031249999998 Q 0.59033203125 0.7375488281249998 0.6416015625 0.7591552734374998 Q 0.69287109375 0.7807617187499998 0.741943359375 0.8089599609374998 Q 0.791015625 0.8371582031249998 0.8294677734375 0.8756103515624998 Q 0.867919921875 0.9140624999999998 0.891357421875 0.9653320312499998 Q 0.914794921875 1.0166015624999998 0.914794921875 1.0839843749999998 Q 0.914794921875 1.1667480468749998 0.8770751953125 1.2264404296874998 Q 0.83935546875 1.2861328124999998 0.77783203125 1.3245849609374998 Q 0.71630859375 1.3630371093749998 0.6375732421875 1.3813476562499998 Q 0.558837890625 1.3996582031249998 0.476806640625 1.3996582031249998 Q 0.39404296875 1.3996582031249998 0.3145751953125 1.3824462890624998 Q 0.235107421875 1.3652343749999998 0.1728515625 1.3344726562499998 Q 0.110595703125 1.3037109374999998 0.072509765625 1.2604980468749998 Q 0.034423828125 1.2172851562499998 0.034423828125 1.1652832031249998 Q 0.034423828125 1.1345214843749998 0.0439453125 1.1114501953124998 Q 0.053466796875 1.0883789062499998 0.0692138671875 1.0733642578124998 Q 0.0849609375 1.0583496093749998 0.10546875 1.0510253906249998 Q 0.1259765625 1.0437011718749998 0.14794921875 1.0437011718749998 Q 0.18310546875 1.0437011718749998 0.205810546875 1.0517578124999998 Q 0.228515625 1.0598144531249998 0.2427978515625 1.0726318359374998 Q 0.257080078125 1.0854492187499998 0.265869140625 1.1019287109374998 Q 0.274658203125 1.1184082031249998 0.28271484375 1.1359863281249998 Q 0.290771484375 1.1535644531249998 0.30029296875 1.1700439453124998 Q 0.309814453125 1.1865234374999998 0.325927734375 1.1993408203124998 Q 0.342041015625 1.2121582031249998 0.3673095703125 1.2202148437499998 Q 0.392578125 1.2282714843749998 0.431396484375 1.2282714843749998 Q 0.49365234375 1.2282714843749998 0.5233154296875 1.2172851562499998 Q 0.552978515625 1.2062988281249998 0.552978515625 1.1740722656249998 Q 0.552978515625 1.1623535156249998 0.5313720703125 1.1510009765624998 Q 0.509765625 1.1396484374999998 0.474609375 1.1271972656249998 Q 0.439453125 1.1147460937499998 0.39404296875 1.0993652343749998 Q 0.3486328125 1.0839843749999998 0.3017578125 1.0631103515624998 Q 0.2548828125 1.0422363281249998 0.20947265625 1.0147705078124998 Q 0.1640625 0.9873046874999998 0.12890625 0.9510498046874998 Q 0.09375 0.9147949218749998 0.0721435546875 0.8679199218749998 Q 0.050537109375 0.8210449218749998 0.050537109375 0.7617187499999998 Q 0.050537109375 0.6965332031249998 0.066650390625 0.6448974609374998 Q 0.082763671875 0.5932617187499998 0.1116943359375 0.5540771484374998 Q 0.140625 0.5148925781249998 0.180908203125 0.4877929687499998 Q 0.22119140625 0.4606933593749998 0.268798828125 0.4434814453124998 Q 0.31640625 0.4262695312499998 0.369873046875 0.4185791015624998 Q 0.42333984375 0.4108886718749998 0.479736328125 0.4108886718749998 Q 0.5771484375 0.4108886718749998 0.646728515625 0.4291992187499998 Q 0.71630859375 0.4475097656249998 0.7613525390625 0.4760742187499998 Q 0.806396484375 0.5046386718749998 0.82763671875 0.5401611328124998 Q 0.848876953125 0.5756835937499998 0.848876953125 0.6101074218749998 Q 0.848876953125 0.6342773437499998 0.8389892578125 0.6558837890624998 Q 0.8291015625 0.6774902343749998 0.81005859375 0.6936035156249998 Q 0.791015625 0.7097167968749998 0.763916015625 0.7192382812499998 Q 0.73681640625 0.7287597656249998 0.70166015625 0.7287597656249998 Q 0.662109375 0.7287597656249998 0.6368408203125 0.7243652343749998 Q 0.611572265625 0.7199707031249998 0.5965576171875 0.7122802734374998 Q 0.58154296875 0.7045898437499998 0.57568359375 0.6939697265624998 Q 0.56982421875 0.6833496093749998 0.56982421875 0.6701660156249998 Q 0.56982421875 0.6569824218749998 0.57421875 0.6503906249999998 Q 0.57861328125 0.6437988281249998 0.5833740234375 0.6375732421874998 Q 0.588134765625 0.6313476562499998 0.592529296875 0.6240234374999998 Q 0.596923828125 0.6166992187499998 0.596923828125 0.6027832031249998 M 1.53076171875 1.0993652343749998 Q 1.53076171875 1.1293945312499998 1.538818359375 1.1462402343749998 Q 1.546875 1.1630859374999998 1.5589599609375 1.1715087890624998 Q 1.571044921875 1.1799316406249998 1.5849609375 1.1832275390624998 Q 1.598876953125 1.1865234374999998 1.6109619140625 1.1901855468749998 Q 1.623046875 1.1938476562499998 1.631103515625 1.2008056640624998 Q 1.63916015625 1.2077636718749998 1.63916015625 1.2238769531249998 Q 1.63916015625 1.3073730468749998 1.552734375 1.3443603515624998 Q 1.46630859375 1.3813476562499998 1.302978515625 1.3813476562499998 Q 1.223876953125 1.3813476562499998 1.1630859375 1.3725585937499998 Q 1.102294921875 1.3637695312499998 1.060546875 1.3443603515624998 Q 1.018798828125 1.3249511718749998 0.9971923828125 1.2952880859374998 Q 0.9755859375 1.2656249999999998 0.9755859375 1.2238769531249998 Q 0.9755859375 1.2077636718749998 0.983642578125 1.2008056640624998 Q 0.99169921875 1.1938476562499998 1.00341796875 1.1901855468749998 Q 1.01513671875 1.1865234374999998 1.029052734375 1.1835937499999998 Q 1.04296875 1.1806640624999998 1.0546875 1.1722412109374998 Q 1.06640625 1.1638183593749998 1.074462890625 1.1480712890624998 Q 1.08251953125 1.1323242187499998 1.08251953125 1.1022949218749998 L 1.08251953125 0.7111816406249998 Q 1.08251953125 0.6818847656249998 1.074462890625 0.6657714843749998 Q 1.06640625 0.6496582031249998 1.0546875 0.6412353515624998 Q 1.04296875 0.6328124999999998 1.029052734375 0.6298828124999998 Q 1.01513671875 0.6269531249999998 1.00341796875 0.6232910156249998 Q 0.99169921875 0.6196289062499998 0.983642578125 0.6126708984374998 Q 0.9755859375 0.6057128906249998 0.9755859375 0.5895996093749998 Q 0.9755859375 0.5478515624999998 0.9971923828125 0.5181884765624998 Q 1.018798828125 0.4885253906249998 1.060546875 0.4691162109374998 Q 1.102294921875 0.4497070312499998 1.1630859375 0.4409179687499998 Q 1.223876953125 0.4321289062499998 1.302978515625 0.4321289062499998 Q 1.374755859375 0.4321289062499998 1.417236328125 0.4442138671874998 Q 1.459716796875 0.4562988281249998 1.483154296875 0.4709472656249998 Q 1.51025390625 0.4885253906249998 1.5205078125 0.5097656249999998 Q 1.55859375 0.4826660156249998 1.611328125 0.4606933593749998 Q 1.65673828125 0.4416503906249998 1.7222900390625 0.4262695312499998 Q 1.787841796875 0.4108886718749998 1.875732421875 0.4108886718749998 Q 1.956298828125 0.4108886718749998 2.0145263671875 0.4310302734374998 Q 2.07275390625 0.4511718749999998 2.1134033203125 0.4852294921874998 Q 2.154052734375 0.5192871093749998 2.178955078125 0.5643310546874998 Q 2.203857421875 0.6093749999999998 2.2174072265625 0.6584472656249998 Q 2.23095703125 0.7075195312499998 2.2357177734375 0.7576904296874998 Q 2.240478515625 0.8078613281249998 2.240478515625 0.8532714843749998 L 2.240478515625 1.0957031249999998 Q 2.240478515625 1.1264648437499998 2.24853515625 1.1436767578124998 Q 2.256591796875 1.1608886718749998 2.26904296875 1.1700439453124998 Q 2.281494140625 1.1791992187499998 2.2957763671875 1.1824951171874998 Q 2.31005859375 1.1857910156249998 2.322509765625 1.1898193359374998 Q 2.3349609375 1.1938476562499998 2.343017578125 1.2008056640624998 Q 2.35107421875 1.2077636718749998 2.35107421875 1.2238769531249998 Q 2.35107421875 1.3073730468749998 2.2650146484375 1.3443603515624998 Q 2.178955078125 1.3813476562499998 2.015625 1.3813476562499998 Q 1.9365234375 1.3813476562499998 1.875732421875 1.3725585937499998 Q 1.81494140625 1.3637695312499998 1.773193359375 1.3443603515624998 Q 1.7314453125 1.3249511718749998 1.7098388671875 1.2952880859374998 Q 1.688232421875 1.2656249999999998 1.688232421875 1.2238769531249998 Q 1.688232421875 1.2077636718749998 1.6962890625 1.2008056640624998 Q 1.704345703125 1.1938476562499998 1.716796875 1.1901855468749998 Q 1.729248046875 1.1865234374999998 1.7431640625 1.1835937499999998 Q 1.757080078125 1.1806640624999998 1.76953125 1.1722412109374998 Q 1.781982421875 1.1638183593749998 1.7900390625 1.1480712890624998 Q 1.798095703125 1.1323242187499998 1.798095703125 1.1022949218749998 L 1.798095703125 0.7895507812499998 Q 1.798095703125 0.7441406249999998 1.7911376953125 0.7086181640624998 Q 1.7841796875 0.6730957031249998 1.7677001953125 0.6485595703124998 Q 1.751220703125 0.6240234374999998 1.72412109375 0.6112060546874998 Q 1.697021484375 0.5983886718749998 1.65673828125 0.5983886718749998 Q 1.631103515625 0.5983886718749998 1.6083984375 0.6068115234374998 Q 1.585693359375 0.6152343749999998 1.56884765625 0.6302490234374998 Q 1.552001953125 0.6452636718749998 1.5421142578125 0.6661376953124998 Q 1.5322265625 0.6870117187499998 1.5322265625 0.7111816406249998 L 1.53076171875 1.0993652343749998 M 2.905517578125 1.3996582031249998 Q 2.818359375 1.3996582031249998 2.7454833984375 1.3791503906249998 Q 2.672607421875 1.3586425781249998 2.6143798828125 1.3231201171874998 Q 2.55615234375 1.2875976562499998 2.51220703125 1.2392578124999998 Q 2.46826171875 1.1909179687499998 2.43896484375 1.1348876953124998 Q 2.40966796875 1.0788574218749998 2.39501953125 1.0180664062499998 Q 2.38037109375 0.9572753906249998 2.38037109375 0.8964843749999998 Q 2.38037109375 0.8342285156249998 2.3961181640625 0.7738037109374998 Q 2.411865234375 0.7133789062499998 2.4437255859375 0.6591796874999998 Q 2.4755859375 0.6049804687499998 2.523193359375 0.5595703124999998 Q 2.57080078125 0.5141601562499998 2.6348876953125 0.4812011718749998 Q 2.698974609375 0.4482421874999998 2.7791748046875 0.4295654296874998 Q 2.859375 0.4108886718749998 2.9560546875 0.4108886718749998 Q 3.041015625 0.4108886718749998 3.1116943359375 0.4299316406249998 Q 3.182373046875 0.4489746093749998 3.239501953125 0.4822998046874998 Q 3.296630859375 0.5156249999999998 3.3394775390625 0.5610351562499998 Q 3.38232421875 0.6064453124999998 3.410888671875 0.6599121093749998 Q 3.439453125 0.7133789062499998 3.4537353515625 0.7727050781249998 Q 3.468017578125 0.8320312499999998 3.468017578125 0.8920898437499998 Q 3.468017578125 0.9543457031249998 3.45263671875 1.0166015624999998 Q 3.437255859375 1.0788574218749998 3.4061279296875 1.1352539062499998 Q 3.375 1.1916503906249998 3.328125 1.2399902343749998 Q 3.28125 1.2883300781249998 3.2186279296875 1.3238525390624998 Q 3.156005859375 1.3593749999999998 3.07763671875 1.3795166015624998 Q 2.999267578125 1.3996582031249998 2.905517578125 1.3996582031249998 M 2.9384765625 1.2121582031249998 Q 2.962646484375 1.2121582031249998 2.9791259765625 1.1978759765624998 Q 2.99560546875 1.1835937499999998 3.005859375 1.1564941406249998 Q 3.01611328125 1.1293945312499998 3.0205078125 1.0909423828124998 Q 3.02490234375 1.0524902343749998 3.02490234375 1.0048828124999998 Q 3.02490234375 0.9631347656249998 3.024169921875 0.9166259765624998 Q 3.0234375 0.8701171874999998 3.0205078125 0.8250732421874998 Q 3.017578125 0.7800292968749998 3.010986328125 0.7390136718749998 Q 3.00439453125 0.6979980468749998 2.9923095703125 0.6665039062499998 Q 2.980224609375 0.6350097656249998 2.9619140625 0.6166992187499998 Q 2.943603515625 0.5983886718749998 2.917236328125 0.5983886718749998 Q 2.8916015625 0.5983886718749998 2.8736572265625 0.6126708984374998 Q 2.855712890625 0.6269531249999998 2.843994140625 0.6525878906249998 Q 2.832275390625 0.6782226562499998 2.8267822265625 0.7141113281249998 Q 2.8212890625 0.7499999999999998 2.8212890625 0.7932128906249998 Q 2.8212890625 0.8334960937499998 2.82275390625 0.8803710937499998 Q 2.82421875 0.9272460937499998 2.82861328125 0.9737548828124998 Q 2.8330078125 1.0202636718749998 2.8414306640625 1.0634765624999998 Q 2.849853515625 1.1066894531249998 2.8626708984375 1.1396484374999998 Q 2.87548828125 1.1726074218749998 2.8941650390625 1.1923828124999998 Q 2.912841796875 1.2121582031249998 2.9384765625 1.2121582031249998 M 5.02001953125 0.5595703124999998 Q 5.02001953125 0.5712890624999998 5.011962890625 0.5808105468749998 Q 5.00390625 0.5903320312499998 4.991455078125 0.5991210937499998 Q 4.97900390625 0.6079101562499998 4.963623046875 0.6163330078124998 Q 4.9482421875 0.6247558593749998 4.93359375 0.6335449218749998 Q 4.9189453125 0.6423339843749998 4.9068603515625 0.6518554687499998 Q 4.894775390625 0.6613769531249998 4.888916015625 0.6730957031249998 L 4.513916015625 1.3754882812499998 Q 4.509521484375 1.3835449218749998 4.5010986328125 1.3883056640624998 Q 4.49267578125 1.3930664062499998 4.48388671875 1.3930664062499998 Q 4.467041015625 1.3930664062499998 4.456787109375 1.3754882812499998 L 4.2568359375 1.0261230468749998 L 4.04736328125 1.3754882812499998 Q 4.042236328125 1.3835449218749998 4.0338134765625 1.3883056640624998 Q 4.025390625 1.3930664062499998 4.0166015625 1.3930664062499998 Q 3.999755859375 1.3930664062499998 3.990234375 1.3754882812499998 L 3.62109375 0.7155761718749998 Q 3.605712890625 0.6877441406249998 3.5870361328125 0.6690673828124998 Q 3.568359375 0.6503906249999998 3.550048828125 0.6383056640624998 Q 3.53173828125 0.6262207031249998 3.5145263671875 0.6181640624999998 Q 3.497314453125 0.6101074218749998 3.484130859375 0.6020507812499998 Q 3.470947265625 0.5939941406249998 3.462890625 0.5848388671874998 Q 3.454833984375 0.5756835937499998 3.454833984375 0.5610351562499998 Q 3.454833984375 0.5200195312499998 3.4786376953125 0.4947509765624998 Q 3.50244140625 0.4694824218749998 3.5482177734375 0.4555664062499998 Q 3.593994140625 0.4416503906249998 3.66064453125 0.4368896484374998 Q 3.727294921875 0.4321289062499998 3.81298828125 0.4321289062499998 Q 3.838623046875 0.4321289062499998 3.872314453125 0.4343261718749998 Q 3.906005859375 0.4365234374999998 3.94189453125 0.4416503906249998 Q 3.977783203125 0.4467773437499998 4.0125732421875 0.4559326171874998 Q 4.04736328125 0.4650878906249998 4.074462890625 0.4793701171874998 Q 4.1015625 0.4936523437499998 4.118408203125 0.5137939453124998 Q 4.13525390625 0.5339355468749998 4.13525390625 0.5610351562499998 Q 4.13525390625 0.5844726562499998 4.1253662109375 0.5969238281249998 Q 4.115478515625 0.6093749999999998 4.1033935546875 0.6170654296874998 Q 4.09130859375 0.6247558593749998 4.0814208984375 0.6317138671874998 Q 4.071533203125 0.6386718749999998 4.071533203125 0.6518554687499998 Q 4.071533203125 0.6613769531249998 4.077392578125 0.6730957031249998 L 4.171875 0.8745117187499998 L 4.266357421875 0.6730957031249998 Q 4.269287109375 0.6679687499999998 4.269287109375 0.6621093749999998 Q 4.269287109375 0.6489257812499998 4.256103515625 0.6394042968749998 Q 4.242919921875 0.6298828124999998 4.2271728515625 0.6188964843749998 Q 4.21142578125 0.6079101562499998 4.1982421875 0.5943603515624998 Q 4.18505859375 0.5808105468749998 4.18505859375 0.5595703124999998 Q 4.18505859375 0.5192871093749998 4.1978759765625 0.4940185546874998 Q 4.210693359375 0.4687499999999998 4.2366943359375 0.4552001953124998 Q 4.2626953125 0.4416503906249998 4.3026123046875 0.4368896484374998 Q 4.342529296875 0.4321289062499998 4.396728515625 0.4321289062499998 Q 4.4384765625 0.4321289062499998 4.4710693359375 0.4376220703124998 Q 4.503662109375 0.4431152343749998 4.525634765625 0.4573974609374998 Q 4.547607421875 0.4716796874999998 4.5589599609375 0.4965820312499998 Q 4.5703125 0.5214843749999998 4.5703125 0.5610351562499998 Q 4.544677734375 0.5822753906249998 4.525634765625 0.6013183593749998 Q 4.5087890625 0.6181640624999998 4.494873046875 0.6357421874999998 Q 4.48095703125 0.6533203124999998 4.48095703125 0.6657714843749998 Q 4.48095703125 0.6708984374999998 4.482421875 0.6730957031249998 L 4.595947265625 0.8745117187499998 L 4.69921875 0.6730957031249998 Q 4.7021484375 0.6679687499999998 4.7021484375 0.6621093749999998 Q 4.7021484375 0.6496582031249998 4.68896484375 0.6401367187499998 Q 4.67578125 0.6306152343749998 4.660400390625 0.6199951171874998 Q 4.64501953125 0.6093749999999998 4.6318359375 0.5958251953124998 Q 4.61865234375 0.5822753906249998 4.61865234375 0.5610351562499998 Q 4.61865234375 0.5229492187499998 4.632568359375 0.4976806640624998 Q 4.646484375 0.4724121093749998 4.6739501953125 0.4581298828124998 Q 4.701416015625 0.4438476562499998 4.742431640625 0.4379882812499998 Q 4.783447265625 0.4321289062499998 4.837646484375 0.4321289062499998 Q 4.875 0.4321289062499998 4.9075927734375 0.4357910156249998 Q 4.940185546875 0.4394531249999998 4.96435546875 0.4522705078124998 Q 4.988525390625 0.4650878906249998 5.003173828125 0.4903564453124998 Q 5.017822265625 0.5156249999999998 5.02001953125 0.5595703124999998 M 6.16259765625 0.5009765624999998 Q 6.175048828125 0.4929199218749998 6.1951904296875 0.4779052734374998 Q 6.21533203125 0.4628906249999998 6.2548828125 0.4478759765624998 Q 6.29443359375 0.4328613281249998 6.359619140625 0.4218749999999998 Q 6.4248046875 0.4108886718749998 6.52734375 0.4108886718749998 Q 6.604248046875 0.4108886718749998 6.661376953125 0.4291992187499998 Q 6.718505859375 0.4475097656249998 6.7591552734375 0.4790039062499998 Q 6.7998046875 0.5104980468749998 6.826171875 0.5533447265624998 Q 6.8525390625 0.5961914062499998 6.867919921875 0.6456298828124998 Q 6.88330078125 0.6950683593749998 6.88916015625 0.7485351562499998 Q 6.89501953125 0.8020019531249998 6.89501953125 0.8547363281249998 L 6.89501953125 0.8620605468749998 Q 6.894287109375 0.9492187499999998 6.8939208984375 0.9964599609374998 Q 6.8935546875 1.0437011718749998 6.8935546875 1.0656738281249998 Q 6.8935546875 1.0876464843749998 6.8935546875 1.0916748046874998 Q 6.8935546875 1.0957031249999998 6.8935546875 1.0957031249999998 Q 6.8935546875 1.1264648437499998 6.901611328125 1.1436767578124998 Q 6.90966796875 1.1608886718749998 6.9217529296875 1.1700439453124998 Q 6.933837890625 1.1791992187499998 6.9481201171875 1.1824951171874998 Q 6.96240234375 1.1857910156249998 6.9744873046875 1.1898193359374998 Q 6.986572265625 1.1938476562499998 6.99462890625 1.2008056640624998 Q 7.002685546875 1.2077636718749998 7.002685546875 1.2238769531249998 Q 7.002685546875 1.2656249999999998 6.9818115234375 1.2952880859374998 Q 6.9609375 1.3249511718749998 6.920654296875 1.3443603515624998 Q 6.88037109375 1.3637695312499998 6.8214111328125 1.3725585937499998 Q 6.762451171875 1.3813476562499998 6.686279296875 1.3813476562499998 Q 6.6123046875 1.3813476562499998 6.5548095703125 1.3725585937499998 Q 6.497314453125 1.3637695312499998 6.457763671875 1.3443603515624998 Q 6.418212890625 1.3249511718749998 6.397705078125 1.2952880859374998 Q 6.377197265625 1.2656249999999998 6.377197265625 1.2238769531249998 Q 6.377197265625 1.2077636718749998 6.3826904296875 1.2008056640624998 Q 6.38818359375 1.1938476562499998 6.396240234375 1.1901855468749998 Q 6.404296875 1.1865234374999998 6.413818359375 1.1835937499999998 Q 6.42333984375 1.1806640624999998 6.431396484375 1.1722412109374998 Q 6.439453125 1.1638183593749998 6.4449462890625 1.1480712890624998 Q 6.450439453125 1.1323242187499998 6.450439453125 1.1022949218749998 L 6.450439453125 0.7873535156249998 Q 6.450439453125 0.7426757812499998 6.4449462890625 0.7075195312499998 Q 6.439453125 0.6723632812499998 6.427001953125 0.6481933593749998 Q 6.41455078125 0.6240234374999998 6.3936767578125 0.6112060546874998 Q 6.372802734375 0.5983886718749998 6.34130859375 0.5983886718749998 Q 6.29296875 0.5983886718749998 6.2713623046875 0.6287841796874998 Q 6.249755859375 0.6591796874999998 6.249755859375 0.7075195312499998 L 6.249755859375 1.0935058593749998 Q 6.249755859375 1.1249999999999998 6.255615234375 1.1425781249999998 Q 6.261474609375 1.1601562499999998 6.2706298828125 1.1693115234374998 Q 6.27978515625 1.1784667968749998 6.2904052734375 1.1821289062499998 Q 6.301025390625 1.1857910156249998 6.3101806640625 1.1898193359374998 Q 6.3193359375 1.1938476562499998 6.3251953125 1.2008056640624998 Q 6.3310546875 1.2077636718749998 6.3310546875 1.2238769531249998 Q 6.3310546875 1.2656249999999998 6.3145751953125 1.2952880859374998 Q 6.298095703125 1.3249511718749998 6.2633056640625 1.3443603515624998 Q 6.228515625 1.3637695312499998 6.1739501953125 1.3725585937499998 Q 6.119384765625 1.3813476562499998 6.04248046875 1.3813476562499998 Q 5.968505859375 1.3813476562499998 5.9110107421875 1.3725585937499998 Q 5.853515625 1.3637695312499998 5.81396484375 1.3443603515624998 Q 5.7744140625 1.3249511718749998 5.75390625 1.2952880859374998 Q 5.7333984375 1.2656249999999998 5.7333984375 1.2238769531249998 Q 5.7333984375 1.2077636718749998 5.7388916015625 1.2008056640624998 Q 5.744384765625 1.1938476562499998 5.75244140625 1.1901855468749998 Q 5.760498046875 1.1865234374999998 5.7703857421875 1.1835937499999998 Q 5.7802734375 1.1806640624999998 5.788330078125 1.1722412109374998 Q 5.79638671875 1.1638183593749998 5.8018798828125 1.1480712890624998 Q 5.807373046875 1.1323242187499998 5.807373046875 1.1022949218749998 L 5.807373046875 0.7873535156249998 Q 5.807373046875 0.6979980468749998 5.7857666015625 0.6489257812499998 Q 5.76416015625 0.5998535156249998 5.70849609375 0.5998535156249998 Q 5.6865234375 0.5998535156249998 5.666748046875 0.6079101562499998 Q 5.64697265625 0.6159667968749998 5.631591796875 0.6309814453124998 Q 5.6162109375 0.6459960937499998 5.607421875 0.6665039062499998 Q 5.5986328125 0.6870117187499998 5.5986328125 0.7111816406249998 L 5.5986328125 1.0993652343749998 Q 5.5986328125 1.1293945312499998 5.6048583984375 1.1462402343749998 Q 5.611083984375 1.1630859374999998 5.62060546875 1.1715087890624998 Q 5.630126953125 1.1799316406249998 5.6414794921875 1.1832275390624998 Q 5.65283203125 1.1865234374999998 5.662353515625 1.1901855468749998 Q 5.671875 1.1938476562499998 5.6781005859375 1.2008056640624998 Q 5.684326171875 1.2077636718749998 5.684326171875 1.2238769531249998 Q 5.684326171875 1.3073730468749998 5.6011962890625 1.3443603515624998 Q 5.51806640625 1.3813476562499998 5.362060546875 1.3813476562499998 Q 5.28662109375 1.3813476562499998 5.227294921875 1.3725585937499998 Q 5.16796875 1.3637695312499998 5.1273193359375 1.3443603515624998 Q 5.086669921875 1.3249511718749998 5.0650634765625 1.2952880859374998 Q 5.04345703125 1.2656249999999998 5.04345703125 1.2238769531249998 Q 5.04345703125 1.2077636718749998 5.051513671875 1.2008056640624998 Q 5.0595703125 1.1938476562499998 5.0712890625 1.1901855468749998 Q 5.0830078125 1.1865234374999998 5.096923828125 1.1835937499999998 Q 5.11083984375 1.1806640624999998 5.12255859375 1.1722412109374998 Q 5.13427734375 1.1638183593749998 5.142333984375 1.1480712890624998 Q 5.150390625 1.1323242187499998 5.150390625 1.1022949218749998 L 5.150390625 0.7111816406249998 Q 5.150390625 0.6818847656249998 5.142333984375 0.6657714843749998 Q 5.13427734375 0.6496582031249998 5.12255859375 0.6412353515624998 Q 5.11083984375 0.6328124999999998 5.096923828125 0.6298828124999998 Q 5.0830078125 0.6269531249999998 5.0712890625 0.6232910156249998 Q 5.0595703125 0.6196289062499998 5.051513671875 0.6126708984374998 Q 5.04345703125 0.6057128906249998 5.04345703125 0.5895996093749998 Q 5.04345703125 0.5478515624999998 5.064697265625 0.5181884765624998 Q 5.0859375 0.4885253906249998 5.1265869140625 0.4691162109374998 Q 5.167236328125 0.4497070312499998 5.225830078125 0.4409179687499998 Q 5.284423828125 0.4321289062499998 5.3583984375 0.4321289062499998 Q 5.39208984375 0.4321289062499998 5.419189453125 0.4354248046874998 Q 5.4462890625 0.4387207031249998 5.4671630859375 0.4442138671874998 Q 5.488037109375 0.4497070312499998 5.50341796875 0.4566650390624998 Q 5.518798828125 0.4636230468749998 5.52978515625 0.4709472656249998 Q 5.555419921875 0.4885253906249998 5.565673828125 0.5097656249999998 Q 5.6015625 0.4826660156249998 5.652099609375 0.4606933593749998 Q 5.6953125 0.4416503906249998 5.757568359375 0.4262695312499998 Q 5.81982421875 0.4108886718749998 5.9033203125 0.4108886718749998 Q 5.98974609375 0.4108886718749998 6.056396484375 0.4354248046874998 Q 6.123046875 0.4599609374999998 6.16259765625 0.5009765624999998 M 7.546875 1.2312011718749998 Q 7.571044921875 1.2312011718749998 7.5860595703125 1.2235107421874998 Q 7.60107421875 1.2158203124999998 7.609130859375 1.2015380859374998 Q 7.6171875 1.1872558593749998 7.6197509765625 1.1663818359374998 Q 7.622314453125 1.1455078124999998 7.622314453125 1.1191406249999998 Q 7.622314453125 1.0964355468749998 7.62158203125 1.0612792968749998 Q 7.620849609375 1.0261230468749998 7.6201171875 0.9924316406249998 Q 7.61865234375 0.9528808593749998 7.617919921875 0.9104003906249998 Q 7.607666015625 0.9089355468749998 7.5985107421875 0.9078369140624998 Q 7.58935546875 0.9067382812499998 7.58056640625 0.9067382812499998 Q 7.543212890625 0.9067382812499998 7.5179443359375 0.9217529296874998 Q 7.49267578125 0.9367675781249998 7.477294921875 0.9635009765624998 Q 7.4619140625 0.9902343749999998 7.4556884765625 1.0264892578124998 Q 7.449462890625 1.0627441406249998 7.449462890625 1.1052246093749998 Q 7.449462890625 1.1308593749999998 7.452392578125 1.1539306640624998 Q 7.455322265625 1.1770019531249998 7.465576171875 1.1942138671874998 Q 7.475830078125 1.2114257812499998 7.4952392578125 1.2213134765624998 Q 7.5146484375 1.2312011718749998 7.546875 1.2312011718749998 M 7.89990234375 1.3813476562499998 Q 7.862548828125 1.3813476562499998 7.8255615234375 1.3773193359374998 Q 7.78857421875 1.3732910156249998 7.7552490234375 1.3608398437499998 Q 7.721923828125 1.3483886718749998 7.694091796875 1.3249511718749998 Q 7.666259765625 1.3015136718749998 7.646484375 1.2626953124999998 Q 7.6318359375 1.2971191406249998 7.5992431640625 1.3227539062499998 Q 7.566650390625 1.3483886718749998 7.5252685546875 1.3656005859374998 Q 7.48388671875 1.3828124999999998 7.4381103515625 1.3912353515624998 Q 7.392333984375 1.3996582031249998 7.3505859375 1.3996582031249998 Q 7.276611328125 1.3996582031249998 7.220947265625 1.3820800781249998 Q 7.165283203125 1.3645019531249998 7.127197265625 1.3319091796874998 Q 7.089111328125 1.2993164062499998 7.070068359375 1.2539062499999998 Q 7.051025390625 1.2084960937499998 7.051025390625 1.1520996093749998 Q 7.051025390625 1.0854492187499998 7.0733642578125 1.0257568359374998 Q 7.095703125 0.9660644531249998 7.1495361328125 0.9213867187499998 Q 7.203369140625 0.8767089843749998 7.29345703125 0.8507080078124998 Q 7.383544921875 0.8247070312499998 7.51904296875 0.8247070312499998 L 7.619384765625 0.8247070312499998 Q 7.619384765625 0.7434082031249998 7.6138916015625 0.6899414062499998 Q 7.6083984375 0.6364746093749998 7.5966796875 0.6049804687499998 Q 7.5849609375 0.5734863281249998 7.5673828125 0.5610351562499998 Q 7.5498046875 0.5485839843749998 7.52490234375 0.5485839843749998 Q 7.4970703125 0.5485839843749998 7.4783935546875 0.5654296874999998 Q 7.459716796875 0.5822753906249998 7.4483642578125 0.6141357421874998 Q 7.43701171875 0.6459960937499998 7.4322509765625 0.6910400390624998 Q 7.427490234375 0.7360839843749998 7.427490234375 0.7932128906249998 Q 7.39599609375 0.7932128906249998 7.3612060546875 0.7921142578124998 Q 7.326416015625 0.7910156249999998 7.2923583984375 0.7866210937499998 Q 7.25830078125 0.7822265624999998 7.2279052734375 0.7730712890624998 Q 7.197509765625 0.7639160156249998 7.174072265625 0.7481689453124998 Q 7.150634765625 0.7324218749999998 7.13671875 0.7082519531249998 Q 7.122802734375 0.6840820312499998 7.122802734375 0.6496582031249998 Q 7.122802734375 0.6013183593749998 7.1480712890625 0.5581054687499998 Q 7.17333984375 0.5148925781249998 7.2257080078125 0.4822998046874998 Q 7.278076171875 0.4497070312499998 7.358642578125 0.4302978515624998 Q 7.439208984375 0.4108886718749998 7.550537109375 0.4108886718749998 Q 7.68017578125 0.4108886718749998 7.77392578125 0.4372558593749998 Q 7.86767578125 0.4636230468749998 7.9281005859375 0.5163574218749998 Q 7.988525390625 0.5690917968749998 8.0174560546875 0.6492919921874998 Q 8.04638671875 0.7294921874999998 8.04638671875 0.8371582031249998 L 8.04638671875 1.0964355468749998 Q 8.04638671875 1.1279296874999998 8.0548095703125 1.1455078124999998 Q 8.063232421875 1.1630859374999998 8.0753173828125 1.1722412109374998 Q 8.08740234375 1.1813964843749998 8.10205078125 1.1850585937499998 Q 8.11669921875 1.1887207031249998 8.1287841796875 1.1927490234374998 Q 8.140869140625 1.1967773437499998 8.1492919921875 1.2037353515624998 Q 8.15771484375 1.2106933593749998 8.15771484375 1.2268066406249998 Q 8.15771484375 1.3000488281249998 8.0921630859375 1.3406982421874998 Q 8.026611328125 1.3813476562499998 7.89990234375 1.3813476562499998 M 9.0146484375 0.6826171874999998 Q 9.03076171875 0.6701660156249998 9.0362548828125 0.6599121093749998 Q 9.041748046875 0.6496582031249998 9.041748046875 0.6416015624999998 Q 9.041748046875 0.6313476562499998 9.029296875 0.6218261718749998 Q 9.016845703125 0.6123046874999998 9.00146484375 0.6020507812499998 Q 8.986083984375 0.5917968749999998 8.9736328125 0.5804443359374998 Q 8.961181640625 0.5690917968749998 8.961181640625 0.5551757812499998 Q 8.961181640625 0.5163574218749998 8.9842529296875 0.4921874999999998 Q 9.00732421875 0.4680175781249998 9.0435791015625 0.4548339843749998 Q 9.079833984375 0.4416503906249998 9.1234130859375 0.4368896484374998 Q 9.1669921875 0.4321289062499998 9.2080078125 0.4321289062499998 Q 9.270263671875 0.4321289062499998 9.3138427734375 0.4387207031249998 Q 9.357421875 0.4453124999999998 9.3848876953125 0.4603271484374998 Q 9.412353515625 0.4753417968749998 9.4244384765625 0.4987792968749998 Q 9.4365234375 0.5222167968749998 9.4365234375 0.5551757812499998 Q 9.4365234375 0.5764160156249998 9.427734375 0.5881347656249998 Q 9.4189453125 0.5998535156249998 9.403564453125 0.6071777343749998 Q 9.38818359375 0.6145019531249998 9.3680419921875 0.6196289062499998 Q 9.347900390625 0.6247558593749998 9.324462890625 0.6320800781249998 Q 9.301025390625 0.6394042968749998 9.2764892578125 0.6507568359374998 Q 9.251953125 0.6621093749999998 9.227783203125 0.6826171874999998 L 9.11865234375 0.7756347656249998 L 9.347900390625 1.1125488281249998 Q 9.365478515625 1.1381835937499998 9.38525390625 1.1502685546874998 Q 9.405029296875 1.1623535156249998 9.4248046875 1.1678466796874998 Q 9.444580078125 1.1733398437499998 9.462890625 1.1751708984374998 Q 9.481201171875 1.1770019531249998 9.4954833984375 1.1806640624999998 Q 9.509765625 1.1843261718749998 9.5181884765625 1.1927490234374998 Q 9.526611328125 1.2011718749999998 9.526611328125 1.2209472656249998 Q 9.526611328125 1.2641601562499998 9.50830078125 1.2949218749999998 Q 9.489990234375 1.3256835937499998 9.4541015625 1.3447265624999998 Q 9.418212890625 1.3637695312499998 9.36474609375 1.3725585937499998 Q 9.311279296875 1.3813476562499998 9.24169921875 1.3813476562499998 Q 9.1611328125 1.3813476562499998 9.11279296875 1.3729248046874998 Q 9.064453125 1.3645019531249998 9.037353515625 1.3494873046874998 Q 9.01025390625 1.3344726562499998 8.9989013671875 1.3139648437499998 Q 8.987548828125 1.2934570312499998 8.9805908203125 1.2681884765624998 Q 8.9736328125 1.2429199218749998 8.96630859375 1.2147216796874998 Q 8.958984375 1.1865234374999998 8.93994140625 1.1564941406249998 L 8.83154296875 0.9865722656249998 Q 8.829345703125 0.9836425781249998 8.8260498046875 0.9799804687499998 Q 8.82275390625 0.9763183593749998 8.8150634765625 0.9730224609374998 Q 8.807373046875 0.9697265624999998 8.794189453125 0.9678955078124998 Q 8.781005859375 0.9660644531249998 8.759765625 0.9660644531249998 L 8.759765625 1.0993652343749998 Q 8.759765625 1.1293945312499998 8.767822265625 1.1462402343749998 Q 8.77587890625 1.1630859374999998 8.7879638671875 1.1715087890624998 Q 8.800048828125 1.1799316406249998 8.81396484375 1.1832275390624998 Q 8.827880859375 1.1865234374999998 8.8399658203125 1.1901855468749998 Q 8.85205078125 1.1938476562499998 8.860107421875 1.2008056640624998 Q 8.8681640625 1.2077636718749998 8.8681640625 1.2238769531249998 Q 8.8681640625 1.3073730468749998 8.78173828125 1.3443603515624998 Q 8.6953125 1.3813476562499998 8.531982421875 1.3813476562499998 Q 8.452880859375 1.3813476562499998 8.39208984375 1.3725585937499998 Q 8.331298828125 1.3637695312499998 8.28955078125 1.3443603515624998 Q 8.247802734375 1.3249511718749998 8.2261962890625 1.2952880859374998 Q 8.20458984375 1.2656249999999998 8.20458984375 1.2238769531249998 Q 8.20458984375 1.2077636718749998 8.212646484375 1.2008056640624998 Q 8.220703125 1.1938476562499998 8.232421875 1.1901855468749998 Q 8.244140625 1.1865234374999998 8.258056640625 1.1835937499999998 Q 8.27197265625 1.1806640624999998 8.28369140625 1.1722412109374998 Q 8.29541015625 1.1638183593749998 8.303466796875 1.1480712890624998 Q 8.3115234375 1.1323242187499998 8.3115234375 1.1022949218749998 L 8.3115234375 0.2790527343749998 Q 8.3115234375 0.24902343749999978 8.303466796875 0.23327636718749978 Q 8.29541015625 0.21752929687499978 8.28369140625 0.20910644531249978 Q 8.27197265625 0.20068359374999978 8.258056640625 0.19775390624999978 Q 8.244140625 0.19482421874999978 8.232421875 0.19116210937499978 Q 8.220703125 0.18749999999999978 8.212646484375 0.18054199218749978 Q 8.20458984375 0.17358398437499978 8.20458984375 0.15747070312499978 Q 8.20458984375 0.11572265624999978 8.2261962890625 0.08605957031249978 Q 8.247802734375 0.05639648437499978 8.28955078125 0.03698730468749978 Q 8.331298828125 0.017578124999999778 8.39208984375 0.008789062499999778 Q 8.452880859375 -2.220446049250313e-16 8.531982421875 -2.220446049250313e-16 Q 8.606689453125 -2.220446049250313e-16 8.6517333984375 0.006958007812499778 Q 8.69677734375 0.013916015624999778 8.7205810546875 0.031127929687499778 Q 8.744384765625 0.04833984374999978 8.7520751953125 0.07727050781249978 Q 8.759765625 0.10620117187499978 8.759765625 0.15014648437499978 L 8.759765625 0.8474121093749998 Q 8.77734375 0.8474121093749998 8.7872314453125 0.8463134765624998 Q 8.797119140625 0.8452148437499998 8.8037109375 0.8426513671874998 Q 8.810302734375 0.8400878906249998 8.816162109375 0.8353271484374998 Q 8.822021484375 0.8305664062499998 8.83154296875 0.8232421874999998 L 9.0146484375 0.6826171874999998 M 10.081787109375 0.5983886718749998 Q 10.058349609375 0.5983886718749998 10.037841796875 0.6090087890624998 Q 10.017333984375 0.6196289062499998 10.0023193359375 0.6416015624999998 Q 9.9873046875 0.6635742187499998 9.9788818359375 0.6976318359374998 Q 9.970458984375 0.7316894531249998 9.970458984375 0.7785644531249998 L 10.2041015625 0.7785644531249998 Q 10.2041015625 0.7272949218749998 10.196044921875 0.6925048828124998 Q 10.18798828125 0.6577148437499998 10.172607421875 0.6368408203124998 Q 10.1572265625 0.6159667968749998 10.1341552734375 0.6071777343749998 Q 10.111083984375 0.5983886718749998 10.081787109375 0.5983886718749998 M 10.027587890625 0.4108886718749998 Q 10.125732421875 0.4108886718749998 10.2044677734375 0.4401855468749998 Q 10.283203125 0.4694824218749998 10.3385009765625 0.5207519531249998 Q 10.393798828125 0.5720214843749998 10.4234619140625 0.6412353515624998 Q 10.453125 0.7104492187499998 10.453125 0.7902832031249998 Q 10.453125 0.8232421874999998 10.4439697265625 0.8415527343749998 Q 10.434814453125 0.8598632812499998 10.41796875 0.8686523437499998 Q 10.401123046875 0.8774414062499998 10.376220703125 0.8796386718749998 Q 10.351318359375 0.8818359374999998 10.31982421875 0.8818359374999998 L 9.967529296875 0.8818359374999998 Q 9.967529296875 0.9624023437499998 9.9840087890625 1.0125732421874998 Q 10.00048828125 1.0627441406249998 10.02978515625 1.0905761718749998 Q 10.05908203125 1.1184082031249998 10.10009765625 1.1282958984374998 Q 10.14111328125 1.1381835937499998 10.19091796875 1.1381835937499998 Q 10.21728515625 1.1381835937499998 10.2454833984375 1.1330566406249998 Q 10.273681640625 1.1279296874999998 10.2996826171875 1.1198730468749998 Q 10.32568359375 1.1118164062499998 10.34765625 1.1030273437499998 Q 10.36962890625 1.0942382812499998 10.38427734375 1.0861816406249998 Q 10.39599609375 1.0795898437499998 10.406982421875 1.0795898437499998 Q 10.423828125 1.0795898437499998 10.433349609375 1.0938720703124998 Q 10.44287109375 1.1081542968749998 10.44287109375 1.1257324218749998 Q 10.44287109375 1.1315917968749998 10.442138671875 1.1367187499999998 Q 10.44140625 1.1418457031249998 10.439208984375 1.1469726562499998 Q 10.41796875 1.2011718749999998 10.38134765625 1.2473144531249998 Q 10.3447265625 1.2934570312499998 10.2923583984375 1.3275146484374998 Q 10.239990234375 1.3615722656249998 10.171142578125 1.3806152343749998 Q 10.102294921875 1.3996582031249998 10.0166015625 1.3996582031249998 Q 9.9345703125 1.3996582031249998 9.8668212890625 1.3802490234374998 Q 9.799072265625 1.3608398437499998 9.7445068359375 1.3260498046874998 Q 9.68994140625 1.2912597656249998 9.64892578125 1.2443847656249998 Q 9.60791015625 1.1975097656249998 9.580810546875 1.1422119140624998 Q 9.5537109375 1.0869140624999998 9.5401611328125 1.0264892578124998 Q 9.526611328125 0.9660644531249998 9.526611328125 0.9045410156249998 Q 9.526611328125 0.8422851562499998 9.54052734375 0.7811279296874998 Q 9.554443359375 0.7199707031249998 9.582275390625 0.6650390624999998 Q 9.610107421875 0.6101074218749998 9.65185546875 0.5635986328124998 Q 9.693603515625 0.5170898437499998 9.749267578125 0.4830322265624998 Q 9.804931640625 0.4489746093749998 9.87451171875 0.4299316406249998 Q 9.944091796875 0.4108886718749998 10.027587890625 0.4108886718749998 M 11.05078125 1.0993652343749998 Q 11.05078125 1.1293945312499998 11.058837890625 1.1462402343749998 Q 11.06689453125 1.1630859374999998 11.0789794921875 1.1715087890624998 Q 11.091064453125 1.1799316406249998 11.10498046875 1.1832275390624998 Q 11.118896484375 1.1865234374999998 11.1309814453125 1.1901855468749998 Q 11.14306640625 1.1938476562499998 11.151123046875 1.2008056640624998 Q 11.1591796875 1.2077636718749998 11.1591796875 1.2238769531249998 Q 11.1591796875 1.3073730468749998 11.07275390625 1.3443603515624998 Q 10.986328125 1.3813476562499998 10.822998046875 1.3813476562499998 Q 10.743896484375 1.3813476562499998 10.68310546875 1.3725585937499998 Q 10.622314453125 1.3637695312499998 10.58056640625 1.3443603515624998 Q 10.538818359375 1.3249511718749998 10.5172119140625 1.2952880859374998 Q 10.49560546875 1.2656249999999998 10.49560546875 1.2238769531249998 Q 10.49560546875 1.2077636718749998 10.503662109375 1.2008056640624998 Q 10.51171875 1.1938476562499998 10.5234375 1.1901855468749998 Q 10.53515625 1.1865234374999998 10.549072265625 1.1835937499999998 Q 10.56298828125 1.1806640624999998 10.57470703125 1.1722412109374998 Q 10.58642578125 1.1638183593749998 10.594482421875 1.1480712890624998 Q 10.6025390625 1.1323242187499998 10.6025390625 1.1022949218749998 L 10.6025390625 0.7111816406249998 Q 10.6025390625 0.6818847656249998 10.594482421875 0.6657714843749998 Q 10.58642578125 0.6496582031249998 10.57470703125 0.6412353515624998 Q 10.56298828125 0.6328124999999998 10.549072265625 0.6298828124999998 Q 10.53515625 0.6269531249999998 10.5234375 0.6232910156249998 Q 10.51171875 0.6196289062499998 10.503662109375 0.6126708984374998 Q 10.49560546875 0.6057128906249998 10.49560546875 0.5895996093749998 Q 10.49560546875 0.5478515624999998 10.5172119140625 0.5181884765624998 Q 10.538818359375 0.4885253906249998 10.58056640625 0.4691162109374998 Q 10.622314453125 0.4497070312499998 10.68310546875 0.4409179687499998 Q 10.743896484375 0.4321289062499998 10.822998046875 0.4321289062499998 Q 10.8955078125 0.4321289062499998 10.9390869140625 0.4464111328124998 Q 10.982666015625 0.4606933593749998 11.007568359375 0.4885253906249998 Q 11.028076171875 0.4753417968749998 11.050048828125 0.4632568359374998 Q 11.072021484375 0.4511718749999998 11.096923828125 0.4420166015624998 Q 11.121826171875 0.4328613281249998 11.151123046875 0.4277343749999998 Q 11.180419921875 0.4226074218749998 11.215576171875 0.4226074218749998 Q 11.259521484375 0.4226074218749998 11.3001708984375 0.4317626953124998 Q 11.3408203125 0.4409179687499998 11.372314453125 0.4617919921874998 Q 11.40380859375 0.4826660156249998 11.4224853515625 0.5159912109374998 Q 11.441162109375 0.5493164062499998 11.441162109375 0.5983886718749998 Q 11.441162109375 0.6306152343749998 11.43017578125 0.6613769531249998 Q 11.419189453125 0.6921386718749998 11.3975830078125 0.7159423828124998 Q 11.3759765625 0.7397460937499998 11.3433837890625 0.7543945312499998 Q 11.310791015625 0.7690429687499998 11.268310546875 0.7690429687499998 Q 11.225830078125 0.7690429687499998 11.20166015625 0.7565917968749998 Q 11.177490234375 0.7441406249999998 11.164306640625 0.7258300781249998 Q 11.151123046875 0.7075195312499998 11.1448974609375 0.6859130859374998 Q 11.138671875 0.6643066406249998 11.1317138671875 0.6459960937499998 Q 11.124755859375 0.6276855468749998 11.1134033203125 0.6152343749999998 Q 11.10205078125 0.6027832031249998 11.079345703125 0.6027832031249998 Q 11.056640625 0.6027832031249998 11.04931640625 0.6082763671874998 Q 11.0419921875 0.6137695312499998 11.0419921875 0.6240234374999998 Q 11.0419921875 0.6372070312499998 11.047119140625 0.6577148437499998 Q 11.05224609375 0.6782226562499998 11.05224609375 0.7075195312499998 L 11.05078125 1.0993652343749998 M 12.053466796875 0.6027832031249998 Q 12.053466796875 0.5859374999999998 12.022705078125 0.5720214843749998 Q 11.991943359375 0.5581054687499998 11.928955078125 0.5581054687499998 Q 11.896728515625 0.5581054687499998 11.8765869140625 0.5617675781249998 Q 11.8564453125 0.5654296874999998 11.8447265625 0.5720214843749998 Q 11.8330078125 0.5786132812499998 11.8289794921875 0.5881347656249998 Q 11.824951171875 0.5976562499999998 11.824951171875 0.6101074218749998 Q 11.824951171875 0.6342773437499998 11.848388671875 0.6522216796874998 Q 11.871826171875 0.6701660156249998 11.9102783203125 0.6870117187499998 Q 11.94873046875 0.7038574218749998 11.997802734375 0.7207031249999998 Q 12.046875 0.7375488281249998 12.09814453125 0.7591552734374998 Q 12.1494140625 0.7807617187499998 12.198486328125 0.8089599609374998 Q 12.24755859375 0.8371582031249998 12.2860107421875 0.8756103515624998 Q 12.324462890625 0.9140624999999998 12.347900390625 0.9653320312499998 Q 12.371337890625 1.0166015624999998 12.371337890625 1.0839843749999998 Q 12.371337890625 1.1667480468749998 12.3336181640625 1.2264404296874998 Q 12.2958984375 1.2861328124999998 12.234375 1.3245849609374998 Q 12.1728515625 1.3630371093749998 12.0941162109375 1.3813476562499998 Q 12.015380859375 1.3996582031249998 11.933349609375 1.3996582031249998 Q 11.8505859375 1.3996582031249998 11.7711181640625 1.3824462890624998 Q 11.691650390625 1.3652343749999998 11.62939453125 1.3344726562499998 Q 11.567138671875 1.3037109374999998 11.529052734375 1.2604980468749998 Q 11.490966796875 1.2172851562499998 11.490966796875 1.1652832031249998 Q 11.490966796875 1.1345214843749998 11.50048828125 1.1114501953124998 Q 11.510009765625 1.0883789062499998 11.5257568359375 1.0733642578124998 Q 11.54150390625 1.0583496093749998 11.56201171875 1.0510253906249998 Q 11.58251953125 1.0437011718749998 11.6044921875 1.0437011718749998 Q 11.6396484375 1.0437011718749998 11.662353515625 1.0517578124999998 Q 11.68505859375 1.0598144531249998 11.6993408203125 1.0726318359374998 Q 11.713623046875 1.0854492187499998 11.722412109375 1.1019287109374998 Q 11.731201171875 1.1184082031249998 11.7392578125 1.1359863281249998 Q 11.747314453125 1.1535644531249998 11.7568359375 1.1700439453124998 Q 11.766357421875 1.1865234374999998 11.782470703125 1.1993408203124998 Q 11.798583984375 1.2121582031249998 11.8238525390625 1.2202148437499998 Q 11.84912109375 1.2282714843749998 11.887939453125 1.2282714843749998 Q 11.9501953125 1.2282714843749998 11.9798583984375 1.2172851562499998 Q 12.009521484375 1.2062988281249998 12.009521484375 1.1740722656249998 Q 12.009521484375 1.1623535156249998 11.9879150390625 1.1510009765624998 Q 11.96630859375 1.1396484374999998 11.93115234375 1.1271972656249998 Q 11.89599609375 1.1147460937499998 11.8505859375 1.0993652343749998 Q 11.80517578125 1.0839843749999998 11.75830078125 1.0631103515624998 Q 11.71142578125 1.0422363281249998 11.666015625 1.0147705078124998 Q 11.62060546875 0.9873046874999998 11.58544921875 0.9510498046874998 Q 11.55029296875 0.9147949218749998 11.5286865234375 0.8679199218749998 Q 11.507080078125 0.8210449218749998 11.507080078125 0.7617187499999998 Q 11.507080078125 0.6965332031249998 11.523193359375 0.6448974609374998 Q 11.539306640625 0.5932617187499998 11.5682373046875 0.5540771484374998 Q 11.59716796875 0.5148925781249998 11.637451171875 0.4877929687499998 Q 11.677734375 0.4606933593749998 11.725341796875 0.4434814453124998 Q 11.77294921875 0.4262695312499998 11.826416015625 0.4185791015624998 Q 11.8798828125 0.4108886718749998 11.936279296875 0.4108886718749998 Q 12.03369140625 0.4108886718749998 12.103271484375 0.4291992187499998 Q 12.1728515625 0.4475097656249998 12.2178955078125 0.4760742187499998 Q 12.262939453125 0.5046386718749998 12.2841796875 0.5401611328124998 Q 12.305419921875 0.5756835937499998 12.305419921875 0.6101074218749998 Q 12.305419921875 0.6342773437499998 12.2955322265625 0.6558837890624998 Q 12.28564453125 0.6774902343749998 12.2666015625 0.6936035156249998 Q 12.24755859375 0.7097167968749998 12.220458984375 0.7192382812499998 Q 12.193359375 0.7287597656249998 12.158203125 0.7287597656249998 Q 12.11865234375 0.7287597656249998 12.0933837890625 0.7243652343749998 Q 12.068115234375 0.7199707031249998 12.0531005859375 0.7122802734374998 Q 12.0380859375 0.7045898437499998 12.0322265625 0.6939697265624998 Q 12.0263671875 0.6833496093749998 12.0263671875 0.6701660156249998 Q 12.0263671875 0.6569824218749998 12.03076171875 0.6503906249999998 Q 12.03515625 0.6437988281249998 12.0399169921875 0.6375732421874998 Q 12.044677734375 0.6313476562499998 12.049072265625 0.6240234374999998 Q 12.053466796875 0.6166992187499998 12.053466796875 0.6027832031249998" fill="#00539b" fill-rule="nonzero"></path></g><g></g><g clip-path="url(#SvgjsClipPath1003)"><g clip-path="url(#SvgjsClipPath1000486618cb-5353-4575-87f5-0cf896f2a705)"><path d=" M 4.410296737602143 -8.517730345102267 L 6.200532168107101 -7.4843982927736095 L 6.200532168107101 -9.551277182725526 L 4.410296737602143 -10.584609235054183 L 4.410296737602143 -8.517730345102267 Z" fill="#00539b" transform="matrix(1,0,0,1,0,0)" fill-rule="evenodd"></path></g><g clip-path="url(#SvgjsClipPath1000486618cb-5353-4575-87f5-0cf896f2a705)"><path d=" M 2.620276092391785 -7.4843982927736095 L 4.410296737602143 -6.450636669855749 L 4.410296737602143 -8.517730345102267 L 2.620276092391785 -9.551277182725526 L 2.620276092391785 -7.4843982927736095 Z" fill="#00539b" transform="matrix(1,0,0,1,0,0)" fill-rule="evenodd"></path></g><g clip-path="url(#SvgjsClipPath1000486618cb-5353-4575-87f5-0cf896f2a705)"><path d=" M 4.410941093485947 -6.450636669855749 L 6.200532168107101 -5.417304617527091 L 6.200532168107101 -7.484183507479008 L 4.410941093485947 -8.517730345102267 L 4.410941093485947 -6.450636669855749 Z" fill="#3fb5de" transform="matrix(1,0,0,1,0,0)" fill-rule="evenodd"></path></g><g clip-path="url(#SvgjsClipPath1000486618cb-5353-4575-87f5-0cf896f2a705)"><path d=" M 7.990338028022856 -8.517730345102267 L 6.200532168107101 -7.4843982927736095 L 6.200532168107101 -9.551277182725526 L 7.990338028022856 -10.584609235054183 L 7.990338028022856 -8.517730345102267 Z" fill="#257abe" transform="matrix(1,0,0,1,0,0)" fill-rule="evenodd"></path></g><g clip-path="url(#SvgjsClipPath1000486618cb-5353-4575-87f5-0cf896f2a705)"><path d=" M 9.779929102644012 -7.4843982927736095 L 7.990338028022856 -6.450636669855749 L 7.990338028022856 -8.517730345102267 L 9.779929102644012 -9.551277182725526 L 9.779929102644012 -7.4843982927736095 Z" fill="#257abe" transform="matrix(1,0,0,1,0,0)" fill-rule="evenodd"></path></g><g clip-path="url(#SvgjsClipPath1000486618cb-5353-4575-87f5-0cf896f2a705)"><path d=" M 7.989693672139052 -6.450636669855749 L 6.1996730269286955 -5.417304617527091 L 6.1996730269286955 -7.484183507479008 L 7.989693672139052 -8.517730345102267 L 7.989693672139052 -6.450636669855749 Z" fill="#81c4e1" transform="matrix(1,0,0,1,0,0)" fill-rule="evenodd"></path></g><g clip-path="url(#SvgjsClipPath1000486618cb-5353-4575-87f5-0cf896f2a705)"><path d=" M 9.779929102644012 -5.417304617527091 L 11.56994974785437 -6.450636669855749 L 9.779929102644012 -7.484183507479008 L 7.989693672139052 -6.450636669855749 L 9.779929102644012 -5.417304617527091 Z" fill="#4890cd" transform="matrix(1,0,0,1,0,0)" fill-rule="evenodd"></path></g><g clip-path="url(#SvgjsClipPath1000486618cb-5353-4575-87f5-0cf896f2a705)"><path d=" M 9.779929102644012 -3.350210942280574 L 11.56994974785437 -4.383757779903832 L 9.779929102644012 -5.417304617527091 L 7.989693672139052 -4.383757779903832 L 9.779929102644012 -3.350210942280574 Z" fill="#4890cd" transform="matrix(1,0,0,1,0,0)" fill-rule="evenodd"></path></g><g clip-path="url(#SvgjsClipPath1000486618cb-5353-4575-87f5-0cf896f2a705)"><path d=" M 7.989693672139052 -4.383757779903832 L 9.77971431734941 -5.417304617527091 L 7.989693672139052 -6.450636669855749 L 6.1996730269286955 -5.417304617527091 L 7.989693672139052 -4.383757779903832 Z" fill="#b4d4e5" transform="matrix(1,0,0,1,0,0)" fill-rule="evenodd"></path></g><g clip-path="url(#SvgjsClipPath1000486618cb-5353-4575-87f5-0cf896f2a705)"><path d=" M 7.989693672139052 -2.3168788899519175 L 9.779929102644012 -1.2833320523286584 L 9.779929102644012 -3.350210942280574 L 7.989693672139052 -4.383757779903832 L 7.989693672139052 -2.3168788899519175 Z" fill="#00539b" transform="matrix(1,0,0,1,0,0)" fill-rule="evenodd"></path></g><g clip-path="url(#SvgjsClipPath1000486618cb-5353-4575-87f5-0cf896f2a705)"><path d=" M 6.1996730269286955 -1.2833320523286584 L 7.989693672139052 -0.25 L 7.989693672139052 -2.3168788899519175 L 6.1996730269286955 -3.350210942280574 L 6.1996730269286955 -1.2833320523286584 Z" fill="#00539b" transform="matrix(1,0,0,1,0,0)" fill-rule="evenodd"></path></g><g clip-path="url(#SvgjsClipPath1000486618cb-5353-4575-87f5-0cf896f2a705)"><path d=" M 6.1996730269286955 -3.350210942280574 L 7.989693672139052 -2.317093675246518 L 7.989693672139052 -4.383757779903832 L 6.1996730269286955 -5.417304617527091 L 6.1996730269286955 -3.350210942280574 Z" fill="#3fb5de" transform="matrix(1,0,0,1,0,0)" fill-rule="evenodd"></path></g><g clip-path="url(#SvgjsClipPath1000486618cb-5353-4575-87f5-0cf896f2a705)"><path d=" M 2.620276092391785 -5.417304617527091 L 4.410296737602143 -6.450636669855749 L 2.620276092391785 -7.484183507479008 L 0.8306850177706311 -6.450636669855749 L 2.620276092391785 -5.417304617527091 Z" fill="#4890cd" transform="matrix(1,0,0,1,0,0)" fill-rule="evenodd"></path></g><g clip-path="url(#SvgjsClipPath1000486618cb-5353-4575-87f5-0cf896f2a705)"><path d=" M 2.620276092391785 -3.350210942280574 L 4.410296737602143 -4.383757779903832 L 2.620276092391785 -5.417304617527091 L 0.8306850177706311 -4.383757779903832 L 2.620276092391785 -3.350210942280574 Z" fill="#4890cd" transform="matrix(1,0,0,1,0,0)" fill-rule="evenodd"></path></g><g clip-path="url(#SvgjsClipPath1000486618cb-5353-4575-87f5-0cf896f2a705)"><path d=" M 4.410941093485947 -4.383757779903832 L 6.200532168107101 -5.417304617527091 L 4.410941093485947 -6.450636669855749 L 2.6207056629809884 -5.417304617527091 L 4.410941093485947 -4.383757779903832 Z" fill="#b4d4e5" transform="matrix(1,0,0,1,0,0)" fill-rule="evenodd"></path></g><g clip-path="url(#SvgjsClipPath1000486618cb-5353-4575-87f5-0cf896f2a705)"><path d=" M 4.410296737602143 -2.3168788899519175 L 2.620276092391785 -1.2833320523286584 L 2.620276092391785 -3.350210942280574 L 4.410296737602143 -4.383757779903832 L 4.410296737602143 -2.3168788899519175 Z" fill="#257abe" transform="matrix(1,0,0,1,0,0)" fill-rule="evenodd"></path></g><g clip-path="url(#SvgjsClipPath1000486618cb-5353-4575-87f5-0cf896f2a705)"><path d=" M 6.200532168107101 -1.2833320523286584 L 4.410296737602143 -0.25 L 4.410296737602143 -2.3168788899519175 L 6.200532168107101 -3.350210942280574 L 6.200532168107101 -1.2833320523286584 Z" fill="#257abe" transform="matrix(1,0,0,1,0,0)" fill-rule="evenodd"></path></g><g clip-path="url(#SvgjsClipPath1000486618cb-5353-4575-87f5-0cf896f2a705)"><path d=" M 6.200532168107101 -3.350210942280574 L 4.410296737602143 -2.317093675246518 L 4.410296737602143 -4.383757779903832 L 6.200532168107101 -5.417304617527091 L 6.200532168107101 -3.350210942280574 Z" fill="#81c4e1" transform="matrix(1,0,0,1,0,0)" fill-rule="evenodd"></path></g></g></g><defs><clipPath id="SvgjsClipPath1003"><path d=" M 0.8306850177706311 -10.584609235054183 h 10.739264730083738 v 10.334609235054183 h -10.739264730083738 Z"></path></clipPath><clipPath id="SvgjsClipPath1000486618cb-5353-4575-87f5-0cf896f2a705"><path d=" M 0.8306850177706311 -10.584609235054183 L 11.56994974785437 -10.584609235054183 L 11.56994974785437 -0.25 L 0.8306850177706311 -0.25 Z"></path></clipPath></defs></svg>